<svg width="154" height="191" viewBox="0 0 154 191" fill="none" xmlns="http://www.w3.org/2000/svg">
<path d="M80.5265 49.0633C79.9655 49.0696 79.5091 48.6132 79.5154 48.0523L79.9166 12.0342C79.9264 11.1487 80.9974 10.7121 81.6236 11.3382L117.24 46.9551C117.867 47.5813 117.43 48.6523 116.545 48.6622L80.5265 49.0633Z" fill="#3A4B55"/>
<path fill-rule="evenodd" clip-rule="evenodd" d="M0 29C0 16.8497 9.84974 7 22 7H70V52C70 56.4183 73.5817 60 78 60H121V103H55C42.8497 103 33 112.85 33 125V170H22C9.84974 170 0 160.15 0 148V29Z" fill="#838D94"/>
<path d="M48.0293 159.62L56.4082 142.701L48.1582 126.008C47.4707 124.611 47.127 123.473 47.127 122.592C47.127 121.432 47.5674 120.486 48.4482 119.756C49.3291 119.004 50.4033 118.628 51.6709 118.628C52.8311 118.628 53.7979 118.929 54.5713 119.53C55.3447 120.11 56.0752 121.238 56.7627 122.914L61.4355 134.645L67.1074 121.851C67.6445 120.69 68.2246 119.863 68.8477 119.369C69.4922 118.875 70.2764 118.628 71.2002 118.628C72.5967 118.628 73.7139 118.982 74.5518 119.691C75.3896 120.379 75.8086 121.324 75.8086 122.527C75.8086 123.408 75.5723 124.332 75.0996 125.299L66.4629 142.701L75.5508 161.264C76.0879 162.467 76.3564 163.326 76.3564 163.842C76.3564 164.959 75.9482 165.915 75.1318 166.71C74.3154 167.483 73.1982 167.87 71.7803 167.87C70.5986 167.87 69.6533 167.602 68.9443 167.064C68.2568 166.527 67.666 165.689 67.1719 164.551L61.2422 151.016L55.0869 165.099C54.2705 166.946 52.9062 167.87 50.9941 167.87C49.7266 167.87 48.6846 167.516 47.8682 166.807C47.0518 166.076 46.6436 165.109 46.6436 163.906C46.6436 162.918 47.1055 161.489 48.0293 159.62ZM95.8161 159.072H109.093C110.662 159.072 111.822 159.438 112.574 160.168C113.326 160.877 113.702 161.833 113.702 163.036C113.702 164.239 113.326 165.206 112.574 165.937C111.822 166.646 110.662 167 109.093 167H91.7234C90.112 167 88.9196 166.624 88.1462 165.872C87.3728 165.099 86.9861 163.896 86.9861 162.263V123.172C86.9861 121.818 87.4157 120.723 88.2751 119.885C89.1345 119.047 90.1765 118.628 91.4011 118.628C92.6257 118.628 93.6677 119.047 94.5271 119.885C95.3864 120.723 95.8161 121.818 95.8161 123.172V159.072ZM137.577 148.534L129.037 142.508C126.824 140.918 125.266 139.199 124.364 137.352C123.483 135.504 123.042 133.312 123.042 130.777C123.042 128.736 123.418 126.921 124.17 125.331C124.922 123.72 125.943 122.42 127.232 121.432C128.521 120.422 129.993 119.659 131.647 119.144C133.323 118.628 135.117 118.37 137.029 118.37C138.919 118.37 140.638 118.628 142.185 119.144C143.732 119.659 144.989 120.325 145.956 121.142C146.922 121.958 147.728 122.903 148.372 123.978C149.039 125.052 149.5 126.115 149.758 127.168C150.038 128.221 150.177 129.263 150.177 130.294C150.177 131.733 149.769 132.851 148.953 133.646C148.158 134.419 147.116 134.806 145.827 134.806C144.151 134.806 143.034 134.44 142.475 133.71C141.916 132.958 141.53 131.647 141.315 129.778C140.971 126.835 139.392 125.363 136.578 125.363C135.203 125.363 134.075 125.771 133.194 126.588C132.313 127.404 131.872 128.511 131.872 129.907C131.872 131.218 132.173 132.389 132.775 133.42C133.376 134.451 134.665 135.633 136.642 136.965L143.184 141.251C144.924 142.39 146.321 143.528 147.373 144.667C148.426 145.784 149.275 147.191 149.919 148.889C150.564 150.586 150.886 152.552 150.886 154.786C150.886 158.976 149.619 162.252 147.083 164.615C144.548 166.957 140.799 168.128 135.836 168.128C134.247 168.128 132.786 167.935 131.454 167.548C130.143 167.161 129.047 166.667 128.166 166.065C127.286 165.442 126.501 164.723 125.814 163.906C125.148 163.068 124.632 162.252 124.267 161.457C123.902 160.662 123.601 159.856 123.365 159.04C123.128 158.202 122.967 157.515 122.881 156.978C122.817 156.419 122.785 155.936 122.785 155.527C122.785 153.68 123.096 152.219 123.719 151.145C124.364 150.049 125.545 149.501 127.264 149.501C128.682 149.501 129.724 149.941 130.39 150.822C131.078 151.682 131.486 153.153 131.615 155.237C131.722 156.978 132.206 158.396 133.065 159.491C133.924 160.587 135.203 161.135 136.9 161.135C138.576 161.135 139.854 160.619 140.735 159.588C141.616 158.535 142.056 157.203 142.056 155.592C142.056 154.045 141.734 152.788 141.089 151.821C140.445 150.854 139.274 149.759 137.577 148.534Z" fill="#3A4B55"/>
</svg>
