<svg width="159" height="191" viewBox="0 0 159 191" fill="none" xmlns="http://www.w3.org/2000/svg">
<path d="M80.5265 49.0633C79.9655 49.0696 79.5091 48.6132 79.5154 48.0523L79.9166 12.0342C79.9264 11.1487 80.9974 10.7121 81.6236 11.3382L117.24 46.9551C117.867 47.5813 117.43 48.6523 116.545 48.6622L80.5265 49.0633Z" fill="#3A4B55"/>
<path fill-rule="evenodd" clip-rule="evenodd" d="M0 29C0 16.8497 9.84973 7 22 7H70V52C70 56.4183 73.5817 60 78 60H121V103H55C42.8497 103 33 112.85 33 125V170H22C9.84973 170 0 160.15 0 148V29Z" fill="#838D94"/>
<path d="M57.5361 126.491V160.007H61.6289C63.2617 160.007 64.5508 159.599 65.4961 158.782C66.4629 157.966 67.2148 156.43 67.752 154.174C68.2891 151.918 68.5576 148.781 68.5576 144.764V140.929C68.5576 135.515 68.1064 131.755 67.2041 129.649C66.3232 127.544 64.5508 126.491 61.8867 126.491H57.5361ZM48.7061 162.263V124.235C48.7061 122.603 49.0928 121.399 49.8662 120.626C50.6396 119.853 51.832 119.466 53.4434 119.466H65.0127C69.5459 119.466 72.8115 121.131 74.8096 124.461C76.8076 127.77 77.8066 133.044 77.8066 140.284V146.407C77.8066 160.136 73.4023 167 64.5938 167H53.4434C51.832 167 50.6396 166.624 49.8662 165.872C49.0928 165.099 48.7061 163.896 48.7061 162.263ZM88.3718 147.857V137.835C88.3718 135.407 88.5114 133.227 88.7907 131.293C89.0915 129.338 89.4782 127.694 89.9509 126.362C90.4236 125.009 91.0251 123.849 91.7556 122.882C92.5075 121.894 93.2702 121.12 94.0437 120.562C94.8386 119.981 95.7517 119.53 96.7829 119.208C97.8357 118.864 98.8239 118.639 99.7478 118.531C100.672 118.424 101.714 118.37 102.874 118.37C103.776 118.37 104.592 118.402 105.323 118.467C106.053 118.531 106.838 118.649 107.676 118.821C108.513 118.993 109.265 119.229 109.931 119.53C110.597 119.831 111.274 120.239 111.962 120.755C112.649 121.249 113.251 121.84 113.766 122.527C114.303 123.215 114.808 124.053 115.281 125.041C115.754 126.029 116.14 127.136 116.441 128.36C116.742 129.563 116.978 130.971 117.15 132.582C117.322 134.193 117.408 135.944 117.408 137.835V147.857C117.408 150.371 117.279 152.627 117.021 154.625C116.763 156.602 116.409 158.299 115.958 159.717C115.528 161.113 114.959 162.327 114.25 163.358C113.541 164.368 112.8 165.185 112.026 165.808C111.274 166.409 110.372 166.882 109.319 167.226C108.266 167.591 107.246 167.827 106.258 167.935C105.269 168.063 104.141 168.128 102.874 168.128C101.606 168.128 100.478 168.063 99.49 167.935C98.5017 167.827 97.4812 167.591 96.4284 167.226C95.3757 166.882 94.4626 166.409 93.6892 165.808C92.9372 165.185 92.2068 164.368 91.4978 163.358C90.8103 162.327 90.2409 161.113 89.7898 159.717C89.3601 158.299 89.0163 156.602 88.7585 154.625C88.5007 152.627 88.3718 150.371 88.3718 147.857ZM97.6208 137.835V147.857C97.6208 150.715 97.7175 153.035 97.9109 154.818C98.1042 156.602 98.4372 157.955 98.9099 158.879C99.404 159.781 99.9411 160.383 100.521 160.684C101.123 160.984 101.907 161.135 102.874 161.135C103.862 161.135 104.646 160.984 105.226 160.684C105.828 160.383 106.365 159.781 106.838 158.879C107.31 157.955 107.643 156.602 107.837 154.818C108.051 153.035 108.159 150.715 108.159 147.857V137.835C108.159 134.505 107.955 131.916 107.547 130.068C107.138 128.221 106.569 126.975 105.839 126.33C105.108 125.686 104.12 125.363 102.874 125.363C101.628 125.363 100.639 125.686 99.9089 126.33C99.1999 126.975 98.6413 128.221 98.2331 130.068C97.8249 131.916 97.6208 134.505 97.6208 137.835ZM127.941 147.471V139.93C127.941 135.74 128.231 132.26 128.811 129.488C129.391 126.717 130.315 124.515 131.582 122.882C132.872 121.228 134.44 120.067 136.288 119.401C138.135 118.714 140.434 118.37 143.184 118.37C147.395 118.37 150.671 119.498 153.013 121.754C155.355 123.988 156.526 126.813 156.526 130.229C156.526 133.753 155.022 135.515 152.014 135.515C150.36 135.515 149.221 135.139 148.598 134.387C147.975 133.635 147.535 132.228 147.277 130.165C146.847 126.964 145.483 125.363 143.184 125.363C142.303 125.363 141.573 125.471 140.993 125.686C140.434 125.879 139.886 126.287 139.349 126.91C138.812 127.512 138.404 128.403 138.124 129.585C137.845 130.745 137.62 132.292 137.448 134.226C137.276 136.138 137.19 138.501 137.19 141.315V143.958C137.19 145.612 137.19 146.955 137.19 147.986C137.211 149.018 137.244 150.156 137.287 151.402C137.351 152.648 137.437 153.647 137.544 154.399C137.673 155.151 137.824 155.946 137.996 156.784C138.189 157.601 138.425 158.245 138.705 158.718C138.984 159.169 139.317 159.609 139.704 160.039C140.112 160.447 140.574 160.737 141.089 160.909C141.626 161.06 142.239 161.135 142.926 161.135C144.065 161.135 145.064 160.662 145.923 159.717C146.804 158.771 147.277 157.633 147.341 156.301C147.47 153.508 147.846 151.606 148.469 150.597C149.092 149.565 150.295 149.05 152.079 149.05C153.561 149.05 154.678 149.512 155.43 150.436C156.204 151.359 156.59 152.638 156.59 154.271C156.59 159.019 155.312 162.521 152.755 164.776C150.22 167.011 146.697 168.128 142.185 168.128C140.681 168.128 139.295 167.988 138.028 167.709C136.782 167.43 135.697 167.064 134.773 166.613C133.871 166.162 133.054 165.561 132.324 164.809C131.615 164.057 131.024 163.315 130.551 162.585C130.079 161.854 129.67 160.952 129.327 159.878C128.983 158.782 128.725 157.805 128.553 156.945C128.381 156.086 128.242 155.033 128.134 153.787C128.048 152.541 127.995 151.499 127.973 150.661C127.952 149.802 127.941 148.738 127.941 147.471Z" fill="#3A4B55"/>
</svg>
