<svg width="156" height="191" viewBox="0 0 156 191" fill="none" xmlns="http://www.w3.org/2000/svg">
<path d="M80.5265 49.0633C79.9655 49.0696 79.5091 48.6132 79.5154 48.0523L79.9166 12.0342C79.9264 11.1487 80.9974 10.7121 81.6236 11.3382L117.24 46.9551C117.867 47.5813 117.43 48.6523 116.545 48.6622L80.5265 49.0633Z" fill="#3A4B55"/>
<path fill-rule="evenodd" clip-rule="evenodd" d="M0 29C0 16.8497 9.84974 7 22 7H70V52C70 56.4183 73.5817 60 78 60H121V103H55C42.8497 103 33 112.85 33 125V170H22C9.84974 170 0 160.15 0 148V29Z" fill="#838D94"/>
<path d="M48.7061 163.294V124.235C48.7061 122.603 49.0928 121.399 49.8662 120.626C50.6396 119.853 51.832 119.466 53.4434 119.466H64.4648C72.4785 119.466 76.4854 123.935 76.4854 132.872C76.4854 134.784 76.249 136.567 75.7764 138.222C75.3252 139.876 74.6484 141.348 73.7461 142.637C72.8652 143.926 71.6836 144.946 70.2012 145.698C68.7402 146.429 67.0752 146.794 65.2061 146.794H57.5361V163.294C57.5361 164.647 57.1064 165.754 56.2471 166.613C55.3877 167.451 54.3457 167.87 53.1211 167.87C51.8965 167.87 50.8545 167.451 49.9951 166.613C49.1357 165.754 48.7061 164.647 48.7061 163.294ZM57.5361 126.137V140.123H61.5C63.4336 140.123 64.873 139.521 65.8184 138.318C66.7637 137.094 67.2363 135.407 67.2363 133.259C67.2363 128.511 65.4746 126.137 61.9512 126.137H57.5361ZM86.9861 163.294V124.235C86.9861 122.603 87.3728 121.399 88.1462 120.626C88.9196 119.853 90.112 119.466 91.7234 119.466H102.745C110.759 119.466 114.765 123.935 114.765 132.872C114.765 134.784 114.529 136.567 114.056 138.222C113.605 139.876 112.928 141.348 112.026 142.637C111.145 143.926 109.964 144.946 108.481 145.698C107.02 146.429 105.355 146.794 103.486 146.794H95.8161V163.294C95.8161 164.647 95.3864 165.754 94.5271 166.613C93.6677 167.451 92.6257 167.87 91.4011 167.87C90.1765 167.87 89.1345 167.451 88.2751 166.613C87.4157 165.754 86.9861 164.647 86.9861 163.294ZM95.8161 126.137V140.123H99.78C101.714 140.123 103.153 139.521 104.098 138.318C105.044 137.094 105.516 135.407 105.516 133.259C105.516 128.511 103.755 126.137 100.231 126.137H95.8161ZM127.296 119.466H150.145C151.713 119.466 152.873 119.831 153.625 120.562C154.377 121.271 154.753 122.227 154.753 123.43C154.753 124.633 154.377 125.6 153.625 126.33C152.873 127.039 151.713 127.394 150.145 127.394H143.152V163.294C143.152 164.647 142.711 165.754 141.831 166.613C140.971 167.451 139.929 167.87 138.705 167.87C137.48 167.87 136.438 167.451 135.579 166.613C134.719 165.754 134.289 164.647 134.289 163.294V127.394H127.296C125.728 127.394 124.568 127.039 123.816 126.33C123.064 125.6 122.688 124.633 122.688 123.43C122.688 122.227 123.064 121.271 123.816 120.562C124.568 119.831 125.728 119.466 127.296 119.466Z" fill="#3A4B55"/>
</svg>
