<svg width="156" height="191" viewBox="0 0 156 191" fill="none" xmlns="http://www.w3.org/2000/svg">
<path d="M80.5265 49.0633C79.9655 49.0696 79.5091 48.6132 79.5154 48.0523L79.9166 12.0342C79.9264 11.1487 80.9974 10.7121 81.6236 11.3382L117.24 46.9551C117.867 47.5813 117.43 48.6523 116.545 48.6622L80.5265 49.0633Z" fill="#3A4B55"/>
<path fill-rule="evenodd" clip-rule="evenodd" d="M0 29C0 16.8497 9.84974 7 22 7H70V52C70 56.4183 73.5817 60 78 60H121V103H55C42.8497 103 33 112.85 33 125V170H22C9.84974 170 0 160.15 0 148V29Z" fill="#838D94"/>
<path d="M48.7061 163.294V124.235C48.7061 122.603 49.0928 121.399 49.8662 120.626C50.6396 119.853 51.832 119.466 53.4434 119.466H64.4648C72.4785 119.466 76.4854 123.935 76.4854 132.872C76.4854 134.784 76.249 136.567 75.7764 138.222C75.3252 139.876 74.6484 141.348 73.7461 142.637C72.8652 143.926 71.6836 144.946 70.2012 145.698C68.7402 146.429 67.0752 146.794 65.2061 146.794H57.5361V163.294C57.5361 164.647 57.1064 165.754 56.2471 166.613C55.3877 167.451 54.3457 167.87 53.1211 167.87C51.8965 167.87 50.8545 167.451 49.9951 166.613C49.1357 165.754 48.7061 164.647 48.7061 163.294ZM57.5361 126.137V140.123H61.5C63.4336 140.123 64.873 139.521 65.8184 138.318C66.7637 137.094 67.2363 135.407 67.2363 133.259C67.2363 128.511 65.4746 126.137 61.9512 126.137H57.5361ZM95.8161 126.491V160.007H99.9089C101.542 160.007 102.831 159.599 103.776 158.782C104.743 157.966 105.495 156.43 106.032 154.174C106.569 151.918 106.838 148.781 106.838 144.764V140.929C106.838 135.515 106.386 131.755 105.484 129.649C104.603 127.544 102.831 126.491 100.167 126.491H95.8161ZM86.9861 162.263V124.235C86.9861 122.603 87.3728 121.399 88.1462 120.626C88.9196 119.853 90.112 119.466 91.7234 119.466H103.293C107.826 119.466 111.092 121.131 113.09 124.461C115.088 127.77 116.087 133.044 116.087 140.284V146.407C116.087 160.136 111.682 167 102.874 167H91.7234C90.112 167 88.9196 166.624 88.1462 165.872C87.3728 165.099 86.9861 163.896 86.9861 162.263ZM136.545 146.278V163.294C136.545 164.647 136.116 165.754 135.256 166.613C134.397 167.451 133.355 167.87 132.13 167.87C130.906 167.87 129.864 167.451 129.004 166.613C128.145 165.754 127.715 164.647 127.715 163.294V124.235C127.715 122.603 128.102 121.399 128.875 120.626C129.649 119.853 130.841 119.466 132.453 119.466H148.824C150.392 119.466 151.552 119.831 152.304 120.562C153.056 121.271 153.432 122.227 153.432 123.43C153.432 124.633 153.056 125.6 152.304 126.33C151.552 127.039 150.392 127.394 148.824 127.394H136.545V138.351H148.824C150.392 138.351 151.552 138.716 152.304 139.446C153.056 140.155 153.432 141.111 153.432 142.314C153.432 143.518 153.056 144.484 152.304 145.215C151.552 145.924 150.392 146.278 148.824 146.278H136.545Z" fill="#3A4B55"/>
</svg>
