<svg width="177" height="195" viewBox="0 0 177 195" fill="none" xmlns="http://www.w3.org/2000/svg">
<circle cx="88.4169" cy="48" r="48" fill="#3A4B55"/>
<path d="M156.564 195C167.193 195 175.817 185.257 173.905 174.802C173.16 170.73 172.236 166.672 171 163C166.502 152.687 161.097 142.789 152.786 134.896C144.475 127.003 134.359 121.772 123.5 117.5C112.641 113.228 101.753 115.5 90 115.5C78.2467 115.5 65.8586 113.228 55 117.5C44.1414 121.772 34.5248 127.003 26.2139 134.896C17.9031 142.789 11.3106 152.159 6.81277 162.472C5.32811 167.592 4.4084 172.727 3.57541 177.7C2.12659 186.349 8.91082 195 17.6806 195L89.5 195H156.564Z" fill="#B0B7BB"/>
</svg>
