<svg width="391" height="358" viewBox="0 0 391 358" fill="none" xmlns="http://www.w3.org/2000/svg">
<rect x="113.097" y="222.952" width="35.5448" height="77.1317" rx="8" transform="rotate(-20.2548 113.097 222.952)" fill="white"/>
<path d="M151.689 246.501C151.446 247.32 134.301 254.713 126.86 258.108L122.868 249.706L150.998 246.091" stroke="black" stroke-width="2" stroke-linecap="round"/>
<path d="M94.3378 252.17C80.3002 253.69 71.3193 237.607 79.9767 226.453L200.329 71.3935C207.358 62.338 221.349 63.3947 226.938 73.4031L301.732 207.342C307.321 217.35 300.88 229.817 289.484 231.05L94.3378 252.17Z" fill="white"/>
<mask id="path-4-inside-1_2_55" fill="white">
<path d="M277.504 241.476C280.285 247.491 277.513 254.899 270.925 254.703C260.988 254.408 249.464 249.07 237.595 239.056C220.728 224.827 204.545 202.322 192.603 176.492C180.662 150.663 173.942 123.624 173.921 101.326C173.906 85.6325 177.21 73.1914 183.321 65.2086C187.371 59.9169 194.745 62.4643 197.527 68.48L237.515 154.978L277.504 241.476Z"/>
</mask>
<path d="M277.504 241.476C280.285 247.491 277.513 254.899 270.925 254.703C260.988 254.408 249.464 249.07 237.595 239.056C220.728 224.827 204.545 202.322 192.603 176.492C180.662 150.663 173.942 123.624 173.921 101.326C173.906 85.6325 177.21 73.1914 183.321 65.2086C187.371 59.9169 194.745 62.4643 197.527 68.48L237.515 154.978L277.504 241.476Z" fill="white" stroke="black" stroke-width="50" mask="url(#path-4-inside-1_2_55)"/>
<ellipse cx="49.799" cy="107.294" rx="49.799" ry="107.294" transform="matrix(0.901862 -0.432025 0.419634 0.907693 161.302 71.9737)" fill="white"/>
<path d="M221.355 133.751C223.312 132.932 226.248 134.678 229.516 138.605C232.784 142.531 236.116 148.317 238.78 154.688C241.444 161.059 243.221 167.495 243.721 172.579C244.221 177.663 243.401 180.979 241.444 181.797L231.399 157.774L221.355 133.751Z" fill="black"/>
<path d="M128.12 250.973C127.908 251.093 127.46 251.219 127.495 251.516C127.513 251.675 127.67 251.724 127.815 251.738C128.371 251.796 129.006 251.667 129.533 251.495C129.793 251.41 130.108 251.259 130.216 250.981C130.292 250.785 129.951 250.925 129.881 250.942C129.064 251.136 128.253 251.412 127.503 251.791C127.222 251.933 126.803 252.133 126.695 252.466C126.528 252.984 127.437 253.212 127.738 253.282C128.881 253.551 130.214 253.458 131.268 252.909C131.726 252.669 132.065 252.25 132.162 251.74C132.168 251.706 132.214 251.438 132.155 251.407C132.098 251.376 131.97 251.405 131.931 251.417C131.572 251.52 131.23 251.713 130.912 251.903C130.877 251.924 129.823 252.534 130.317 252.601C130.524 252.629 131.026 252.598 131.177 252.585C132.01 252.511 132.838 252.375 133.645 252.158C134.318 251.977 135.764 251.637 135.663 250.677C135.654 250.593 135.645 250.438 135.54 250.417C135.216 250.353 134.756 250.539 134.458 250.637C134.24 250.708 133.658 250.871 133.765 251.22C133.894 251.643 134.7 251.548 135.009 251.527C135.731 251.478 136.437 251.314 137.117 251.07C137.655 250.878 138.165 250.609 138.728 250.498C138.951 250.455 139.159 250.414 139.375 250.342C139.86 250.18 140.382 250.146 140.886 250.072C141.871 249.928 142.821 249.711 143.763 249.39C144.375 249.182 144.981 248.916 145.6 248.74C145.79 248.686 145.95 248.55 146.129 248.47C146.33 248.381 146.542 248.288 146.75 248.2C146.944 248.117 147.114 247.974 147.302 247.897C147.342 247.881 147.436 247.874 147.315 247.888C146.987 247.926 146.659 247.962 146.335 248.027C145.405 248.212 144.485 248.365 143.543 248.475C143.237 248.511 143.042 248.611 142.768 248.735C142.321 248.938 141.977 249.217 141.482 249.299C140.705 249.428 139.939 249.597 139.159 249.707C138.303 249.827 137.434 249.879 136.582 250.025C136.005 250.124 135.434 250.309 134.874 250.479C134.183 250.689 133.489 250.815 132.772 250.899C132.151 250.972 131.511 251.01 130.9 251.151C130.511 251.241 130.347 251.406 130.194 251.757C130.114 251.942 130.059 252.123 130.026 252.321C130.007 252.442 129.998 252.546 129.911 252.639C129.596 252.972 129.109 253.166 128.723 253.407C128.538 253.522 128.347 253.63 128.158 253.741C128.022 253.821 127.82 253.892 127.768 254.056C127.671 254.367 127.722 254.688 127.759 255.004C127.771 255.106 127.792 255.115 127.902 255.094C128.248 255.029 128.527 254.767 128.879 254.696C129.309 254.608 129.744 254.536 130.176 254.459C130.964 254.318 131.673 253.976 132.429 253.739C132.8 253.623 133.171 253.527 133.533 253.382C133.822 253.266 134.104 253.133 134.401 253.037C134.812 252.904 135.221 252.787 135.651 252.737C135.679 252.734 135.756 252.709 135.734 252.727C135.695 252.761 135.64 252.771 135.593 252.792C135.266 252.94 134.942 253.093 134.611 253.23C134.142 253.423 133.665 253.563 133.181 253.699C132.521 253.885 131.822 253.981 131.149 254.115C130.733 254.198 130.273 254.238 129.875 254.395C129.09 254.707 128.218 254.954 127.696 255.668C127.623 255.768 127.451 255.911 127.323 255.926C127.224 255.937 126.992 254.817 126.962 254.707C126.799 254.098 126.634 253.452 126.56 252.822C126.51 252.399 126.407 251.897 126.153 251.547C126.025 251.371 125.998 251.191 125.885 251.018C125.827 250.929 125.71 250.857 125.606 250.87C120.748 251.439 135.301 249.529 140.177 249.142C142.626 248.948 145.07 248.586 147.511 248.3C147.809 248.265 148.19 248.287 148.463 248.144C148.548 248.099 148.593 248.028 148.694 248.016" stroke="black" stroke-width="3" stroke-linecap="round"/>
<rect x="60.2674" y="223.797" width="55.3559" height="48.4972" rx="9" transform="rotate(-28.9124 60.2674 223.797)" fill="white"/>
<path d="M97.3319 203.932L118.462 249.032" stroke="black" stroke-width="5" stroke-linecap="round"/>
</svg>
